<?xml version="1.0" standalone="no"?>
<!DOCTYPE svg PUBLIC "-//W3C//DTD SVG 20010904//EN"
 "http://www.w3.org/TR/2001/REC-SVG-20010904/DTD/svg10.dtd">
<svg version="1.0" xmlns="http://www.w3.org/2000/svg"
 width="100.000000pt" height="100.000000pt" viewBox="0 0 100.000000 100.000000"
 preserveAspectRatio="xMidYMid meet">
<metadata>
Created by potrace 1.14, written by Peter Selinger 2001-2017
</metadata>
<g transform="translate(0.000000,100.000000) scale(0.100000,-0.100000)"
fill="#000000" stroke="none">
<path d="M433 990 c-135 -29 -212 -98 -263 -237 -14 -39 -41 -84 -70 -118 -63
-71 -90 -144 -93 -249 l-2 -81 42 -3 c31 -2 46 -9 54 -23 5 -11 24 -29 42 -39
l31 -19 27 107 c18 72 31 107 40 107 22 0 22 -39 -1 -121 -26 -92 -22 -141 14
-189 37 -48 99 -82 197 -106 88 -23 129 -18 171 18 15 13 25 13 88 -3 l72 -19
20 25 c32 38 67 121 74 173 5 38 1 63 -26 136 -17 49 -30 97 -28 108 7 35 30
17 48 -37 11 -30 27 -79 37 -109 l19 -53 32 36 c17 20 35 48 38 63 12 46 -13
133 -62 217 -34 58 -48 95 -55 143 -11 78 -37 132 -81 167 -18 15 -45 38 -61
51 -15 14 -44 32 -65 41 -44 19 -179 27 -239 14z m287 -105 c43 -22 53 -49 61
-160 4 -55 11 -121 14 -146 6 -35 2 -57 -16 -100 -29 -70 -30 -71 -66 -57 -29
11 -31 15 -42 96 -9 60 -9 88 -2 95 8 8 11 6 11 -5 0 -25 27 -43 44 -29 7 6
20 9 29 5 8 -3 18 -1 21 4 20 33 -46 78 -99 68 -54 -10 -59 -24 -45 -117 14
-98 8 -108 -49 -89 -40 13 -61 8 -61 -13 0 -10 -82 -52 -102 -52 -3 0 -31 49
-62 109 -51 99 -56 115 -56 173 0 78 16 119 63 160 40 35 89 52 152 54 22 1
51 5 65 9 42 13 109 11 140 -5z m-39 -544 c33 -27 14 -48 -25 -30 -22 10 -37
10 -73 1 -47 -13 -72 -5 -58 18 21 33 120 40 156 11z"/>
<path d="M404 666 c-37 -16 -50 -34 -36 -48 7 -7 17 -6 31 2 19 9 25 8 41 -12
l20 -23 20 23 c18 22 20 22 45 6 18 -12 29 -14 37 -6 15 15 3 29 -42 52 -46
23 -73 25 -116 6z"/>
</g>
</svg>
